<svg width="100" height="100" viewBox="0 0 100 100" fill="none" xmlns="http://www.w3.org/2000/svg">
<rect width="100" height="100" rx="50" fill="#16195F"/>
<path d="M47.5343 18L28 48.5638L50.0932 59.423L71.8358 48.5541L52.6473 18H47.5343V18ZM47.6487 26.8553V37.449L38.119 41.7732L47.6487 26.8553ZM52.5183 26.9527L61.8143 41.7562L52.5183 37.4904V26.9551V26.9527ZM47.6487 42.7958V52.7955L37.072 47.5923L47.6487 42.7958ZM52.5183 42.8518L62.8564 47.5996L52.5183 52.7638V42.8494V42.8518ZM28.1704 53.3336V59.4692L47.4734 81H52.6936L71.9965 59.4668V53.3311L50.0835 64.5652L28.1704 53.3336ZM39.1781 64.4508L47.6487 68.792V73.8953L39.1781 64.4508ZM60.9889 64.4508L52.5183 73.8953V68.792L60.9889 64.4508Z" fill="#85B6FF"/>
</svg>
